<svg width="20" height="20" viewBox="0 0 20 20" fill="none" xmlns="http://www.w3.org/2000/svg">
<rect x="1" y="1" width="18" height="18" rx="9" fill="white"/>
<rect x="1" y="1" width="18" height="18" rx="9" stroke="white" stroke-width="2"/>
<rect x="1" y="1" width="18" height="18" rx="9" fill="white"/>
<rect x="1" y="1" width="18" height="18" rx="9" stroke="white" stroke-width="2"/>
<path d="M8.47732 2.80234C9.21703 1.73255 10.7828 1.73255 11.5225 2.80234C11.9706 3.45043 12.7717 3.74544 13.5268 3.54042C14.7731 3.20199 15.9725 4.22029 15.8595 5.52087C15.7911 6.30877 16.2173 7.05577 16.9259 7.38975C18.0957 7.94104 18.3676 9.50115 17.4547 10.424C16.9017 10.983 16.7537 11.8325 17.0844 12.5492C17.6302 13.7322 16.8473 15.1042 15.5618 15.2174C14.783 15.286 14.1299 15.8405 13.9279 16.6046C13.5944 17.8658 12.1231 18.4076 11.0664 17.6583C10.4262 17.2044 9.57365 17.2044 8.93346 17.6583C7.87673 18.4076 6.4054 17.8658 6.07193 16.6046C5.86991 15.8405 5.21684 15.286 4.43804 15.2174C3.1525 15.1042 2.36963 13.7322 2.91545 12.5492C3.24612 11.8325 3.09808 10.983 2.54508 10.424C1.63225 9.50115 1.90414 7.94104 3.07387 7.38975C3.7825 7.05577 4.20876 6.30877 4.14031 5.52087C4.02732 4.22029 5.22676 3.20199 6.47306 3.54042C7.22808 3.74544 8.02919 3.45043 8.47732 2.80234Z" fill="url(#paint0_linear_1_36428)"/>
<g filter="url(#filter0_d_1_36428)">
<path d="M6.66666 10.254L8.66666 12.1111L13.3333 7.77777" stroke="white" stroke-width="1.2" stroke-linecap="round" stroke-linejoin="round" shape-rendering="crispEdges"/>
</g>
<defs>
<filter id="filter0_d_1_36428" x="5.06665" y="7.17776" width="9.86667" height="7.53333" filterUnits="userSpaceOnUse" color-interpolation-filters="sRGB">
<feFlood flood-opacity="0" result="BackgroundImageFix"/>
<feColorMatrix in="SourceAlpha" type="matrix" values="0 0 0 0 0 0 0 0 0 0 0 0 0 0 0 0 0 0 127 0" result="hardAlpha"/>
<feOffset dy="1"/>
<feGaussianBlur stdDeviation="0.5"/>
<feComposite in2="hardAlpha" operator="out"/>
<feColorMatrix type="matrix" values="0 0 0 0 0 0 0 0 0 0 0 0 0 0 0 0 0 0 0.25 0"/>
<feBlend mode="normal" in2="BackgroundImageFix" result="effect1_dropShadow_1_36428"/>
<feBlend mode="normal" in="SourceGraphic" in2="effect1_dropShadow_1_36428" result="shape"/>
</filter>
<linearGradient id="paint0_linear_1_36428" x1="9.99991" y1="2" x2="9.99991" y2="18" gradientUnits="userSpaceOnUse">
<stop stop-color="#27AE60"/>
<stop offset="1" stop-color="#1E874B"/>
</linearGradient>
</defs>
</svg>
